<?xml version="1.0" encoding="utf-8"?>
<!-- Generator: Adobe Illustrator 21.0.0, SVG Export Plug-In . SVG Version: 6.00 Build 0)  -->
<svg version="1.1" xmlns="http://www.w3.org/2000/svg" xmlns:xlink="http://www.w3.org/1999/xlink" x="0px" y="0px"
	 viewBox="0 0 557.1 236.4" style="enable-background:new 0 0 557.1 236.4;" xml:space="preserve">
<style type="text/css">
	.st0{fill:url(#SVGID_1_);}
	.st1{filter:url(#Adobe_OpacityMaskFilter);}
	.st2{opacity:0.7;mask:url(#SVGID_2_);}
	.st3{fill:#1B274F;}
	.st4{fill:#FFFFFF;}
	.st5{clip-path:url(#SVGID_4_);}
	.st6{fill:url(#SVGID_5_);}
	.st7{fill:url(#SVGID_6_);stroke:#1D2087;}
	.st8{fill:none;}
	.st9{opacity:0.15;fill:url(#SVGID_7_);}
	.st10{opacity:0.5;fill:url(#SVGID_8_);}
	.st11{fill:url(#SVGID_9_);}
	.st12{opacity:3.000000e-02;fill:none;stroke:#FFFFFF;stroke-width:2;stroke-miterlimit:10;}
	.st13{fill:#231815;}
	.st14{fill:#004EA2;}
</style>
<g id="圖層_4">
	<g>
		<g>
			<radialGradient id="SVGID_1_" cx="86.0721" cy="53.0224" r="180.6575" gradientUnits="userSpaceOnUse">
				<stop  offset="0.1179" style="stop-color:#00B8EE"/>
				<stop  offset="0.5171" style="stop-color:#004097"/>
				<stop  offset="0.8393" style="stop-color:#181878"/>
				<stop  offset="1" style="stop-color:#005BAB"/>
			</radialGradient>
			<circle class="st0" cx="118.1" cy="118.3" r="118.1"/>
		</g>
		<defs>
			<filter id="Adobe_OpacityMaskFilter" filterUnits="userSpaceOnUse" x="0" y="0.1" width="236.3" height="236.3">
				
					<feColorMatrix  type="matrix" values="-1 0 0 0 1  0 -1 0 0 1  0 0 -1 0 1  0 0 0 1 0" color-interpolation-filters="sRGB" result="source"/>
			</filter>
		</defs>
		<mask maskUnits="userSpaceOnUse" x="0" y="0.1" width="236.3" height="236.3" id="SVGID_2_">
			<g class="st1">
				
					<image style="overflow:visible;" width="242" height="241" xlink:href="CC66D2BEF0F7EE71.jpg"  transform="matrix(1 0 0 1 -2.8512 -2.0559)">
				</image>
			</g>
		</mask>
		<g class="st2">
			<circle class="st3" cx="118.1" cy="118.3" r="118.1"/>
		</g>
	</g>
	<g>
		<path class="st4" d="M118.1,0.1c65.2,0,118.1,52.9,118.1,118.1s-52.9,118.1-118.1,118.1S0,183.5,0,118.3S52.9,0.1,118.1,0.1
			 M118.1-4.2c-32.7,0-63.4,12.7-86.6,35.9C8.4,54.8-4.3,85.6-4.3,118.3s12.7,63.4,35.9,86.6c23.1,23.1,53.9,35.9,86.6,35.9
			s63.4-12.7,86.6-35.9s35.9-53.9,35.9-86.6s-12.7-63.4-35.9-86.6S150.8-4.2,118.1-4.2L118.1-4.2z"/>
	</g>
</g>
<g id="圖層_2">
	<g>
		<defs>
			<circle id="SVGID_3_" cx="118.1" cy="118.1" r="118.1"/>
		</defs>
		<clipPath id="SVGID_4_">
			<use xlink:href="#SVGID_3_"  style="overflow:visible;"/>
		</clipPath>
		<g class="st5">
			<g>
				
					<image style="overflow:visible;opacity:0.5;" width="160" height="170" xlink:href="CC66D2BEF0F7EE73.png"  transform="matrix(1 0 0 1 51.6446 49.4401)">
				</image>
				<g>
					<g>
						<path class="st4" d="M69,174.5c2.2-2.2,4-6.6,4-9.7v-14.6c0-3.1,0-5.7,0-5.7s-1.8,1.8-4,4l-7.3,7.3c-2.2,2.2-4,6.6-4,9.7v14.6
							c0,3.1,0,5.7,0,5.7c0,0,1.8-1.8,4-4L69,174.5z"/>
						
							<ellipse transform="matrix(0.7071 -0.7071 0.7071 0.7071 -82.389 120.689)" class="st4" cx="104.5" cy="159.8" rx="10.2" ry="10.2"/>
						<path class="st4" d="M113.9,197.2c1-1.9,1.7-4,2-6.2H94.3v-51.6h21.3c0,0,0-2.4,0-9.3c0-6.9-6.2-6-6.2-6h-15v-15.3l4.8,0h16.8
							c0,0,0,0,0,0s0,0,0,0s0-2.6,0-5.7V92.8c0-3.1-1.8-7.5-4-9.7L91,62.3c-2.2-2.2-5.8-2.2-8,0L62.1,83.2c-2.2,2.2-4,6.6-4,9.7V103
							c0,3.1,0,5.7,0,5.7s1.8-1.8,4-4L83,83.9c2.2-2.2,5.8-2.2,8,0l9.6,9.5c0,0-11.2,0-17,0c-5.2,0-8.4,3.9-8.4,3.9L62,110.5h17
							v13.6H57.7v9.6c0,0-0.6,5.7,6,5.7s15.3,0,15.3,0V191H57.7c0,0,4.9,15.3,13.9,15.3c0.3,0,0.6,0,0.8,0c1.5,0,2.1,0,2,0
							c9.9,0,20.3,0,26.8,0c0.9,0,1.7-0.1,2.5-0.3c3.7-1.3,6.9-3.8,9.1-7c0.1-0.1,0.1-0.2,0.2-0.3c0.2-0.3,0.4-0.6,0.6-1
							C113.7,197.6,113.8,197.4,113.9,197.2z"/>
						<g>
							<path class="st4" d="M179.2,191v-21h0.1h15.3l0,0v-13.2v-0.1v-14.2v-5.3V114c0,0,0,0,0-0.1h0h-29.3h-44.6v48.3
								c0,0-0.2,7.7,7.3,7.7c7.2,0,7.9,0,7.9,0v21H121c-0.6,6-3.4,11.4-7.5,15.3h7.2c0,0,6.1,0,15.9,0c15.3,0,14.6-14.7,14.6-14.7
								V170h12.7v36.3c0,0,2.7,0,14.7,0c9.4,0,20.3-15.3,20.3-15.3H179.2z M157.5,159.6c-4.8,0-9.1-1.9-12.3-5H136l-0.1-25.5h9.3
								c3.2-3.1,7.5-5,12.3-5s9.1,1.9,12.3,5h1.1h8.4v25.5h-9.6C166.6,157.7,162.2,159.6,157.5,159.6z"/>
							<path class="st4" d="M127,108.8c7.8,0,67.6,0,67.6,0h0c0-2.8,0-6.4,0-9.5c0-6.3-6.8-5.8-6.8-5.8h-4.7V78.2h11.5v-8.4
								c0,0,0.4-6.9-7.4-6.9c-4.3,0-22,0-22,0v-6.9H150v6.9h-29.3v10.2c0,0-0.2,5.1,6.5,5.1c3.1,0,5,0,5,0v15.3h-11.5v9.8
								C120.6,103.2,120.5,108.8,127,108.8z M147.4,78.2h20.4v15.3h-20.4V78.2z"/>
						</g>
					</g>
				</g>
			</g>
			<linearGradient id="SVGID_5_" gradientUnits="userSpaceOnUse" x1="147.7918" y1="132.5828" x2="166.7119" y2="151.5029">
				<stop  offset="0" style="stop-color:#20AEE5"/>
				<stop  offset="0.5" style="stop-color:#FCFDFF"/>
				<stop  offset="1" style="stop-color:#20AEE5"/>
			</linearGradient>
			<circle class="st6" cx="157.3" cy="142" r="13.4"/>
			
				<linearGradient id="SVGID_6_" gradientUnits="userSpaceOnUse" x1="273.8358" y1="-91.6153" x2="286.7717" y2="-78.6794" gradientTransform="matrix(0 -1 1 0 242.3992 422.3466)">
				<stop  offset="0" style="stop-color:#21ADE5"/>
				<stop  offset="0.5" style="stop-color:#FCFDFF"/>
				<stop  offset="1" style="stop-color:#21ADE5"/>
			</linearGradient>
			<circle class="st7" cx="157.3" cy="142" r="9.1"/>
			<g>
				<line class="st8" x1="154.4" y1="137.6" x2="156.3" y2="140.4"/>
				<circle class="st8" cx="154.4" cy="137.6" r="2.8"/>
				<circle class="st8" cx="154.4" cy="137.6" r="3.4"/>
				<polyline class="st8" points="154.4,137.6 154.4,137.9 154.4,137.6 154.4,137.3 154.4,137.6 154.1,137.6 154.4,137.6 
					154.7,137.6 154.4,137.6 169.2,144.3 154.4,137.6 139.6,130.9 154.4,137.6 147.7,152.4 154.4,137.6 161.1,122.8 154.4,137.6 
					156.2,140.4 154.4,137.6 152.6,134.7 154.4,137.6 151.6,139.4 154.4,137.6 157.2,135.7 154.4,137.6 167,146.1 154.4,137.6 
					141.8,129.1 154.4,137.6 145.9,150.2 154.4,137.6 162.9,125 154.4,137.6 165.9,145.1 154.4,137.6 142.9,130.1 154.4,137.6 
					146.9,149.1 154.4,137.6 161.9,126.1 154.4,137.6 150.1,148.2 154.4,137.6 158.7,127 154.4,137.6 143.8,133.3 154.4,137.6 
					165,141.9 154.4,137.6 160,153.3 154.4,137.6 148.8,121.9 154.4,137.6 138.7,143.2 154.4,137.6 170.1,132 154.4,137.6 
					155.5,141.7 154.4,137.6 153.3,133.4 154.4,137.6 150.3,138.6 154.4,137.6 158.5,136.5 154.4,137.6 153.6,152.8 154.4,137.6 
					155.2,122.4 154.4,137.6 139.2,136.8 154.4,137.6 169.6,138.4 154.4,137.6 152.6,144.6 154.4,137.6 156.2,130.6 154.4,137.6 
					147.4,135.7 154.4,137.6 161.4,139.4 154.4,137.6 165.5,149.4 154.4,137.6 143.3,125.8 154.4,137.6 142.6,148.6 154.4,137.6 
					166.2,126.5 154.4,137.6 151.6,148.4 154.4,137.6 157.2,126.8 154.4,137.6 143.6,134.8 154.4,137.6 165.2,140.4 154.4,137.6 
					150.1,148.6 154.4,137.6 158.7,126.6 154.4,137.6 143.4,133.3 154.4,137.6 165.4,141.9 154.4,137.6 151.5,147.8 154.4,137.6 
					157.3,127.4 154.4,137.6 144.2,134.6 154.4,137.6 164.6,140.5 154.4,137.6 153.7,145.2 154.4,137.6 155.1,130 154.4,137.6 
					146.8,136.9 154.4,137.6 162,138.3 				"/>
				<radialGradient id="SVGID_7_" cx="154.4019" cy="137.5838" r="6.84" gradientUnits="userSpaceOnUse">
					<stop  offset="0" style="stop-color:#200000"/>
					<stop  offset="0.73" style="stop-color:#9B4121"/>
					<stop  offset="1" style="stop-color:#200000"/>
				</radialGradient>
				<circle class="st9" cx="154.4" cy="137.6" r="6.8"/>
				<radialGradient id="SVGID_8_" cx="154.4019" cy="137.5838" r="3.42" gradientUnits="userSpaceOnUse">
					<stop  offset="0.15" style="stop-color:#FFFFFF"/>
					<stop  offset="0.2104" style="stop-color:#E4D2D2"/>
					<stop  offset="0.2911" style="stop-color:#C59B9C"/>
					<stop  offset="0.3609" style="stop-color:#AD7374"/>
					<stop  offset="0.4161" style="stop-color:#9F5B5C"/>
					<stop  offset="0.45" style="stop-color:#9A5253"/>
					<stop  offset="0.5762" style="stop-color:#693132"/>
					<stop  offset="0.6964" style="stop-color:#411617"/>
					<stop  offset="0.7916" style="stop-color:#290606"/>
					<stop  offset="0.85" style="stop-color:#200000"/>
					<stop  offset="0.8572" style="stop-color:#240201"/>
					<stop  offset="0.8646" style="stop-color:#310803"/>
					<stop  offset="0.8722" style="stop-color:#451108"/>
					<stop  offset="0.8799" style="stop-color:#621E0E"/>
					<stop  offset="0.8876" style="stop-color:#883016"/>
					<stop  offset="0.8952" style="stop-color:#B5441F"/>
					<stop  offset="0.9" style="stop-color:#D55326"/>
					<stop  offset="0.9034" style="stop-color:#C64C23"/>
					<stop  offset="0.915" style="stop-color:#9A381A"/>
					<stop  offset="0.927" style="stop-color:#752712"/>
					<stop  offset="0.9395" style="stop-color:#56190B"/>
					<stop  offset="0.9525" style="stop-color:#3E0E06"/>
					<stop  offset="0.9663" style="stop-color:#2D0603"/>
					<stop  offset="0.9813" style="stop-color:#230101"/>
					<stop  offset="1" style="stop-color:#200000"/>
				</radialGradient>
				<circle class="st10" cx="154.4" cy="137.6" r="3.4"/>
				<radialGradient id="SVGID_9_" cx="154.4019" cy="137.5838" r="2.85" gradientUnits="userSpaceOnUse">
					<stop  offset="0.15" style="stop-color:#FFFFFF"/>
					<stop  offset="0.2824" style="stop-color:#C2C2C2"/>
					<stop  offset="0.4253" style="stop-color:#888888"/>
					<stop  offset="0.5636" style="stop-color:#575757"/>
					<stop  offset="0.6936" style="stop-color:#313131"/>
					<stop  offset="0.8134" style="stop-color:#161616"/>
					<stop  offset="0.9192" style="stop-color:#060606"/>
					<stop  offset="1" style="stop-color:#000000"/>
				</radialGradient>
				<circle class="st11" cx="154.4" cy="137.6" r="2.8"/>
				<polyline class="st12" points="154.4,137.6 154.4,137.9 154.4,137.6 154.4,137.3 154.4,137.6 154.1,137.6 154.4,137.6 
					154.7,137.6 154.4,137.6 169.2,144.3 154.4,137.6 139.6,130.9 154.4,137.6 147.7,152.4 154.4,137.6 161.1,122.8 154.4,137.6 
					156.2,140.4 154.4,137.6 152.6,134.7 154.4,137.6 151.6,139.4 154.4,137.6 157.2,135.7 154.4,137.6 167,146.1 154.4,137.6 
					141.8,129.1 154.4,137.6 145.9,150.2 154.4,137.6 162.9,125 154.4,137.6 165.9,145.1 154.4,137.6 142.9,130.1 154.4,137.6 
					146.9,149.1 154.4,137.6 161.9,126.1 154.4,137.6 150.1,148.2 154.4,137.6 158.7,127 154.4,137.6 143.8,133.3 154.4,137.6 
					165,141.9 154.4,137.6 160,153.3 154.4,137.6 148.8,121.9 154.4,137.6 138.7,143.2 154.4,137.6 170.1,132 154.4,137.6 
					155.5,141.7 154.4,137.6 153.3,133.4 154.4,137.6 150.3,138.6 154.4,137.6 158.5,136.5 154.4,137.6 153.6,152.8 154.4,137.6 
					155.2,122.4 154.4,137.6 139.2,136.8 154.4,137.6 169.6,138.4 154.4,137.6 152.6,144.6 154.4,137.6 156.2,130.6 154.4,137.6 
					147.4,135.7 154.4,137.6 161.4,139.4 154.4,137.6 165.5,149.4 154.4,137.6 143.3,125.8 154.4,137.6 142.6,148.6 154.4,137.6 
					166.2,126.5 154.4,137.6 151.6,148.4 154.4,137.6 157.2,126.8 154.4,137.6 143.6,134.8 154.4,137.6 165.2,140.4 154.4,137.6 
					150.1,148.6 154.4,137.6 158.7,126.6 154.4,137.6 143.4,133.3 154.4,137.6 165.4,141.9 154.4,137.6 151.5,147.8 154.4,137.6 
					157.3,127.4 154.4,137.6 144.2,134.6 154.4,137.6 164.6,140.5 154.4,137.6 153.7,145.2 154.4,137.6 155.1,130 154.4,137.6 
					146.8,136.9 154.4,137.6 162,138.3 				"/>
			</g>
		</g>
	</g>
</g>
<g id="圖層_3">
	<g>
		<path class="st13" d="M316.2,167.4h39.7v7.5h-23.5v7.9h22.1v7.5h-22.1v9H357v7.5h-40.7V167.4z"/>
		<path class="st13" d="M364.3,167.4h23.9c16,0,22.8,4.8,22.8,18.5c0,14.3-3.2,21-24.4,21h-22.3V167.4z M380.4,200.1h4.3
			c7.5,0,10.1-1.7,10.1-13.6c0-9.6-1.3-12.2-9.9-12.2h-4.5V200.1z"/>
		<path class="st13" d="M419.7,167.4h16.1V207h-16.1V167.4z"/>
		<path class="st13" d="M458.8,167.4H479l17.1,39.5h-16.7l-2.5-7.5h-16.4l-2.4,7.5h-16.7L458.8,167.4z M468.6,174.6h-0.2l-5.7,17.6
			h11.7L468.6,174.6z"/>
	</g>
	<g>
		<path class="st14" d="M317.1,115.4h16.1v39.5h-16.1V115.4z"/>
		<path class="st14" d="M343.5,115.4h27.1c13.7,0,18.5,4.9,18.5,10.3c0,5.8-4,8.6-11.5,9.6v0.1c10.3,0.8,10.9,4.5,11.1,9.9
			c0.3,7.8,0.8,8.6,3.1,9.1v0.5h-17.4c-1.3-1.3-1.7-3.5-1.7-8c0-6.9-1.6-8.3-6.7-8.3h-6.2v16.3h-16.1V115.4z M359.7,132.1h5
			c6.5,0,8.3-2.8,8.3-5.1c0-3-1.9-5-8.4-5h-4.9V132.1z"/>
		<path class="st14" d="M398.7,115.4h27.1c13.7,0,18.5,4.9,18.5,10.3c0,5.8-4,8.6-11.5,9.6v0.1c10.3,0.8,10.9,4.5,11,9.9
			c0.3,7.8,0.8,8.6,3.1,9.1v0.5h-17.4c-1.2-1.3-1.7-3.5-1.7-8c0-6.9-1.6-8.3-6.7-8.3h-6.2v16.3h-16.1V115.4z M414.8,132.1h5
			c6.5,0,8.3-2.8,8.3-5.1c0-3-1.9-5-8.4-5h-4.9V132.1z"/>
		<path class="st14" d="M476.4,155.7c-21.2,0-24.1-8-24.1-20.5s2.9-20.5,24.1-20.5c22.9,0,24.1,9.6,24.1,20.5
			S499.3,155.7,476.4,155.7z M476.3,149.5c6.5,0,7.5-3.5,7.5-14.3c0-10.9-1-14.3-7.5-14.3c-6.3,0-7.3,3.5-7.3,14.3
			C469,146,470,149.5,476.3,149.5z"/>
		<path class="st14" d="M509,115.4h27.1c13.7,0,18.5,4.9,18.5,10.3c0,5.8-4,8.6-11.5,9.6v0.1c10.3,0.8,10.9,4.5,11.1,9.9
			c0.3,7.8,0.8,8.6,3.1,9.1v0.5h-17.4c-1.2-1.3-1.7-3.5-1.7-8c0-6.9-1.6-8.3-6.7-8.3h-6.2v16.3H509V115.4z M525.1,132.1h5
			c6.5,0,8.3-2.8,8.3-5.1c0-3-1.9-5-8.4-5h-4.9V132.1z"/>
	</g>
	<path class="st14" d="M257.9,161.3l-4-25.7h-0.2v25.7h-14.4v-46H263l6.5,46H257.9z M288.1,161.3v-25.7H288l-3.8,25.7h-10.6l6.2-46
		h23.4v46H288.1z"/>
	<path class="st13" d="M239.3,161.3h14.4V207h-14.4V161.3z M265,207l-7.1-45.7h11.5l2,14.2h0.2l1.9-14.2h10.6l-6.7,45.7H265z
		 M288.1,161.3h15V207h-15V161.3z"/>
</g>
</svg>
